<svg preserveAspectRatio="none" width="137" height="47" overflow="visible" style="display: block;" viewBox="0 0 137 47" fill="none" xmlns="http://www.w3.org/2000/svg">
<g id="Vector">
<path d="M0 28.4875L18.5675 47L37.1293 28.4875L32.8143 24.1853L18.5675 38.3899L8.63564 28.4875L18.5675 18.5907L22.7983 22.809L27.1189 18.5068L18.5675 9.98065L0 28.4875Z" fill="#0081C6"/>
<path d="M37.1349 18.5125L18.5675 0L0 18.5125L4.32063 22.8147L18.5675 8.61005L28.4993 18.5125L18.5675 28.4093L14.3366 24.191L10.016 28.4932L18.5675 37.0193L37.1349 18.5125Z" fill="#0081C6"/>
<path d="M89.083 18.5228C87.9517 18.7578 86.8125 18.8675 86.1996 18.891C84.1569 18.985 83.7719 18.139 83.7719 15.1545C83.7719 12.17 84.1648 11.3083 86.1996 11.3945C86.8125 11.418 88.1166 11.6921 89.083 11.794L89.3658 10.0471C88.4152 9.87479 87.1582 9.65547 86.3018 9.6163C81.7607 9.41264 80.6529 11.324 80.6529 15.1466C80.6529 18.9693 81.7607 20.8493 86.3018 20.677C87.2289 20.6456 88.4702 20.4733 89.4366 20.2853L89.083 18.5228Z" fill="#021D3F"/>
<path d="M48.024 13.9008V18.3815H51.4573C53.0757 18.3815 53.8614 17.9428 53.8614 15.9766C53.8614 13.9165 52.3765 13.9008 51.2923 13.9008H48.024ZM48.024 7.64979V11.8406H51.2923C52.7929 11.8406 53.3036 11.2296 53.3036 9.55331C53.3036 8.04147 52.8008 7.64979 51.0645 7.64979H48.024ZM51.0645 5.55046C54.3799 5.55046 56.3519 6.9213 56.3519 9.54546C56.3519 11.1278 55.7941 12.1226 54.9299 12.7023C55.9827 13.2271 56.9019 14.1671 56.9019 15.9688C56.9019 19.3841 54.4978 20.4573 51.4494 20.4573H44.9913V5.54262H51.0645V5.55046Z" fill="#021D3F"/>
<path d="M64.4207 15.2561C64.4207 15.2561 63.4386 15.2404 62.4408 15.3658C61.4116 15.4989 60.838 16.0081 60.838 17.0578C60.838 17.8411 61.0973 18.5304 62.1894 18.7419C62.8808 18.8751 63.58 18.8359 64.4128 18.7419V15.2561H64.4207ZM58.7403 10.2271C60.5238 9.8746 61.7573 9.61611 63.0615 9.61611C66.0627 9.61611 67.4297 11.0183 67.4297 13.1803V20.3556C65.607 20.5671 63.7371 20.7786 61.7258 20.5749C59.251 20.3164 57.7268 19.0553 57.7268 17.0578C57.7268 15.2404 58.8189 13.9558 61.663 13.619C62.9043 13.478 64.4128 13.4701 64.4128 13.4701V13.055C64.4128 11.9505 64.0199 11.4491 63.0536 11.4491C62.0165 11.4491 60.7516 11.692 59.0546 12.0288L58.7403 10.2271Z" fill="#021D3F"/>
<path d="M97.4659 14.9741C97.4659 12.2481 96.5545 11.4178 95.1168 11.4178C93.3019 11.4178 92.6734 12.0288 92.6734 14.9349C92.6734 18.0369 93.0898 18.8673 95.1168 18.8673C97.1123 18.8673 97.4659 17.8881 97.4659 14.9741ZM95.1168 9.61611C98.5265 9.61611 100.554 11.2611 100.554 14.9741C100.554 18.6714 99.4458 20.6611 95.1168 20.6611C90.8506 20.6611 89.5936 18.9143 89.5936 14.9349C89.5936 11.1749 91.3849 9.61611 95.1168 9.61611Z" fill="#021D3F"/>
<path d="M112.786 11.551C112.267 11.4178 111.482 11.2925 110.712 11.3943C109.211 11.598 108.85 12.4362 108.85 14.9507C108.85 17.5827 109.156 18.7107 111.395 18.8438C112.299 18.8987 112.794 18.8125 112.794 18.8125V11.551H112.786ZM115.787 5.56633V20.4105C114.129 20.5985 113.029 20.669 111.827 20.669C106.76 20.669 105.723 18.5932 105.723 14.9037C105.723 11.6293 106.862 9.58481 110.704 9.58481C111.482 9.58481 112.197 9.63966 112.778 9.71799V5.56633H115.787Z" fill="#021D3F"/>
<path d="M124.383 14.2065C124.304 12.068 123.715 11.4178 122.246 11.4178C120.863 11.4178 120.258 12.0836 120.179 14.2065H124.383ZM127.022 20.1519C125.38 20.4966 123.88 20.6768 122.411 20.6768C117.932 20.6768 117.029 18.3503 117.029 15.1386C117.029 11.0809 118.914 9.61611 122.143 9.61611C125.616 9.61611 127.431 11.2454 127.431 14.7783V16.0003H120.187C120.266 17.9821 120.69 18.8594 122.442 18.8594C123.455 18.8594 125.608 18.5853 126.692 18.3503L127.022 20.1519Z" fill="#021D3F"/>
<path d="M69.0322 10.6814C70.7685 9.99209 72.3634 9.60042 74.1861 9.60042C78.0673 9.60042 79.3872 11.4804 79.3872 14.9192V20.4653H76.3702V14.9192C76.3702 12.2794 75.781 11.4021 74.1861 11.4021C73.3926 11.4021 72.5441 11.5744 72.002 11.7233V20.4653H69.0322V10.6814Z" fill="#021D3F"/>
<path d="M77.9969 39.2922C76.8655 39.5272 75.7263 39.6369 75.1135 39.6604C73.0708 39.7544 72.678 38.9084 72.678 35.9239C72.678 32.9394 73.0708 32.0777 75.1135 32.1639C75.7185 32.1874 77.0305 32.4694 77.9969 32.5634L78.2797 30.8166C77.3291 30.6442 76.072 30.4249 75.2157 30.3857C70.6745 30.1821 69.5746 32.0934 69.5746 35.9161C69.5746 39.7387 70.6824 41.6187 75.2235 41.4464C76.1506 41.4151 77.3919 41.2427 78.3583 41.0547L77.9969 39.2922Z" fill="#0081C6"/>
<path d="M68.7339 39.2922C67.6026 39.5272 66.4634 39.6369 65.8584 39.6604C63.8157 39.7544 63.4307 38.9084 63.4307 35.9239C63.4307 32.9394 63.8236 32.0777 65.8584 32.1639C66.4634 32.1874 67.7754 32.4694 68.7339 32.5634L69.0168 30.8166C68.0661 30.6442 66.8091 30.4249 65.9527 30.3857C61.4116 30.1821 60.3117 32.0934 60.3117 35.9161C60.3117 39.7387 61.4194 41.6187 65.9606 41.4464C66.8876 41.4151 68.129 41.2427 69.0953 41.0547L68.7339 39.2922Z" fill="#0081C6"/>
<path d="M52.1251 39.3234C55.4484 39.3234 56.0298 37.6628 56.0298 33.5581C56.0298 29.6023 54.5292 28.255 52.1251 28.255C49.2024 28.255 48.0947 29.3281 48.0947 33.5111C48.0947 37.9213 48.7625 39.3234 52.1251 39.3234ZM59.1175 33.5503C59.1175 38.7203 57.7426 41.4071 52.1172 41.4071C46.5312 41.4071 44.9913 39.0728 44.9913 33.4955C44.9913 28.2471 47.2304 26.1713 52.1172 26.1713C56.5719 26.1713 59.1175 28.3724 59.1175 33.5503Z" fill="#0081C6"/>
<path d="M79.7491 30.5894H82.7189V41.2428H79.7491V30.5894ZM79.7491 26.7355H82.7189V28.9758H79.7491V26.7355Z" fill="#0081C6"/>
<path d="M91.2666 32.3204C90.748 32.1873 89.9624 32.0619 89.1924 32.1638C87.6918 32.3674 87.3304 33.2056 87.3304 35.7201C87.3304 38.3521 87.6368 39.5036 89.876 39.6133C90.0252 39.6289 90.206 39.6289 90.4102 39.6289C90.6695 39.6289 91.0152 39.5898 91.2744 39.5819V32.3204H91.2666ZM91.2666 26.3358H94.2678V41.1799C92.5708 41.3209 91.5102 41.4384 90.3081 41.4384C85.2406 41.4384 84.2114 39.3626 84.2114 35.6809C84.2114 32.3988 85.3506 30.3621 89.1924 30.3621C89.9781 30.3621 90.6852 30.4169 91.2666 30.4953V26.3358Z" fill="#0081C6"/>
<path d="M107.553 31.4509C109.29 30.7615 110.884 30.3698 112.707 30.3698C116.588 30.3698 117.908 32.242 117.908 35.6808V41.2269H114.891V35.6808C114.891 33.041 114.302 32.1637 112.707 32.1637C111.914 32.1637 111.065 32.336 110.523 32.4849V41.2269H107.553V31.4509Z" fill="#0081C6"/>
<path d="M123.455 28.1216V30.6439H125.828V32.4456H123.455V37.7331C123.455 38.9629 123.549 39.4173 124.076 39.4878C124.539 39.5504 125.003 39.4799 125.82 39.4094L126.173 41.1798C124.869 41.4304 123.934 41.4461 123.479 41.4461C120.839 41.4461 120.383 40.2319 120.383 37.7331V32.4456H118.553V30.6439H120.383V28.1216H123.455Z" fill="#0081C6"/>
<path d="M103.099 34.968C103.02 32.8295 102.423 32.1872 100.962 32.1872C99.5788 32.1872 98.9739 32.853 98.8953 34.968H103.099ZM105.731 40.9135C104.089 41.2582 102.588 41.4462 101.119 41.4462C96.6404 41.4462 95.7369 39.1197 95.7369 35.908C95.7369 31.8504 97.6225 30.3855 100.844 30.3855C104.316 30.3855 106.131 32.0149 106.131 35.5477V36.7697H98.8874C98.9739 38.7515 99.3903 39.6289 101.142 39.6289C102.156 39.6289 104.308 39.3547 105.393 39.1197L105.731 40.9135Z" fill="#0081C6"/>
<path d="M133.952 34.9759C133.873 32.8452 133.276 32.195 131.815 32.195C130.432 32.195 129.827 32.8609 129.748 34.9837L133.952 34.9759ZM136.584 40.9214C134.942 41.266 133.449 41.4462 131.972 41.4462C127.493 41.4462 126.598 39.1197 126.598 35.908C126.598 31.8504 128.483 30.3855 131.712 30.3855C135.185 30.3855 137 32.0149 137 35.5477V36.7697H129.756C129.843 38.7515 130.259 39.6289 132.011 39.6289C133.025 39.6289 135.177 39.3547 136.261 39.1197L136.584 40.9214Z" fill="#0081C6"/>
</g>
</svg>
