<svg preserveAspectRatio="none" width="125.068" height="35.0508" overflow="visible" style="display: block;" viewBox="0 0 125.068 35.0508" fill="none" xmlns="http://www.w3.org/2000/svg">
<g id="Group 23">
<g id="Vector">
<path d="M20.0657 4.18237H24.9795C24.9876 4.30022 24.9876 4.44436 24.9876 4.63202C24.9876 5.94606 24.563 7.03347 23.7305 7.92143C22.8948 8.79716 21.8374 9.23548 20.5441 9.23548C19.2508 9.23548 18.1486 8.78492 17.2588 7.89514C16.3779 7.00808 15.923 5.90617 15.923 4.61933C15.923 3.33248 16.363 2.23102 17.2488 1.34124C18.1346 0.453728 19.2319 0 20.5147 0C22.4702 0 24.0634 0.968649 24.6981 2.57551L23.7612 2.9064C23.1379 1.64675 21.9571 0.983153 20.5147 0.983153C19.5237 0.983153 18.6799 1.34033 18.0041 2.04427C17.3283 2.74775 16.9864 3.59674 16.9864 4.61887C16.9864 5.64101 17.3283 6.50223 18.0122 7.20662C18.7146 7.90693 19.5643 8.25504 20.5649 8.25504C21.4927 8.25504 22.2651 7.96132 22.8858 7.3775C23.5051 6.79278 23.8737 6.05031 23.9839 5.1347H20.0662V4.18237H20.0657Z" fill="#025F9B"/>
<path d="M32.8001 2.50842L32.7215 3.47707C32.642 3.46483 32.5114 3.46483 32.338 3.46483C30.6612 3.46483 29.718 4.69774 29.718 6.54212V9.06233H28.7003V2.52157H29.718V4.12526C30.3265 3.01292 31.201 2.45494 32.338 2.45494C32.5236 2.45494 32.6831 2.47035 32.8001 2.50797" fill="#025F9B"/>
<path d="M41.9108 2.52202V9.04963H40.8944V7.98852C40.337 8.80895 39.5176 9.22052 38.4316 9.22052C37.6529 9.22052 37.02 8.9685 36.5313 8.45131C36.0524 7.93503 35.8148 7.26962 35.8148 6.43469V2.52202H36.8335V6.25066C36.8335 7.47042 37.5612 8.27952 38.6317 8.27952C40.0185 8.27952 40.8944 7.32492 40.8944 5.66503V2.52202H41.9108Z" fill="#025F9B"/>
<path d="M51.9357 3.33157C52.5848 3.96752 52.9065 4.79112 52.9065 5.79875C52.9065 6.80638 52.5848 7.62998 51.9357 8.27907C51.3051 8.91728 50.5322 9.23548 49.6505 9.23548C48.523 9.23548 47.6634 8.83614 47.0554 8.02931V11.3178H46.0544V2.52248H47.0554V3.5709C47.6638 2.7618 48.523 2.36156 49.6505 2.36156C50.5322 2.36156 51.3047 2.68021 51.9357 3.33112M51.2243 7.64312C51.6877 7.17942 51.9235 6.55572 51.9235 5.79875C51.9235 5.04178 51.6877 4.41852 51.2243 3.95437C50.759 3.49158 50.1763 3.24998 49.4892 3.24998C48.841 3.24998 48.2736 3.49158 47.7858 3.96797C47.2939 4.43303 47.0549 5.04314 47.0549 5.7992C47.0549 6.55526 47.2939 7.15223 47.7858 7.63043C48.2736 8.09413 48.841 8.33391 49.4892 8.33391C50.1763 8.33391 50.759 8.10864 51.2243 7.64358" fill="#025F9B"/>
<path d="M61.7768 3.34517C62.4526 3.98021 62.786 4.79021 62.786 5.7856C62.786 6.78099 62.4521 7.60233 61.7768 8.25459C61.1146 8.90277 60.297 9.22143 59.3317 9.22143C58.3664 9.22143 57.5316 8.90277 56.859 8.25459C56.1954 7.60233 55.8661 6.78099 55.8661 5.7856C55.8661 4.79021 56.1959 3.98021 56.859 3.34517C57.5316 2.69608 58.351 2.37561 59.3317 2.37561C60.3124 2.37561 61.1146 2.69608 61.7768 3.34517ZM61.0663 7.61638C61.5541 7.13817 61.789 6.52761 61.789 5.78515C61.789 5.04268 61.5541 4.44345 61.0663 3.97975C60.5897 3.50382 60.0038 3.26494 59.3312 3.26494C58.6586 3.26494 58.0605 3.50336 57.5727 3.97975C57.0799 4.44345 56.8418 5.05492 56.8418 5.78515C56.8418 6.51537 57.0794 7.13817 57.5727 7.61638C58.0605 8.09368 58.6433 8.33346 59.3312 8.33346C60.0192 8.33346 60.5897 8.09368 61.0663 7.61638Z" fill="#025F9B"/>
<path d="M16.2108 21.2872L29.9037 35.0499L34.789 30.1383L21.0934 16.3768L16.2108 21.2872Z" fill="#0C3761"/>
<path d="M19.8724 15.133C18.5159 13.7732 16.3251 13.7732 14.9708 15.133L0 30.1392L4.88442 35.0504L17.3934 22.4779C20.096 19.7601 24.4853 19.7601 27.1929 22.4779L19.8724 15.133Z" fill="#025F9B"/>
<path d="M81.188 21.2872L94.8832 35.0499L99.7716 30.1383L86.0747 16.3768L81.188 21.2872Z" fill="#0C3761"/>
<path d="M84.8546 15.133C83.4963 13.7732 81.3082 13.7732 79.9517 15.133L64.9799 30.1387L69.8666 35.0499L82.3756 22.4775C85.0791 19.7596 89.4675 19.7596 92.1751 22.4775L84.8546 15.1326V15.133Z" fill="#025F9B"/>
<path d="M51.404 27.8764L37.7071 14.1136L32.8195 19.0253L46.5178 32.7908L51.404 27.8764Z" fill="#97262C"/>
<path d="M47.7424 34.031C49.0926 35.3908 51.2889 35.3908 52.639 34.031L67.6139 19.0253L62.7254 14.1141L50.2174 26.6866C47.5098 29.4067 43.1245 29.4067 40.4178 26.6866L47.7424 34.0314V34.031Z" fill="#CF3320"/>
<path d="M109.915 14.0638H103.413V30.0866H109.915V14.0638Z" fill="#0C3761"/>
<path d="M103.42 31.7311C103.42 33.5387 104.88 35.001 106.683 35.001L125.068 35.0277V28.5024L109.934 28.5056C106.336 28.5056 103.413 25.5788 103.413 21.9671L103.42 31.7315V31.7311Z" fill="#025F9B"/>
</g>
</g>
</svg>
