<svg preserveAspectRatio="none" width="182.556" height="17.9708" overflow="visible" style="display: block;" viewBox="0 0 182.556 17.9708" fill="none" xmlns="http://www.w3.org/2000/svg">
<g transform="translate(182.556,0) rotate(90)">
<g id="Group">
<path id="Vector" fill-rule="evenodd" clip-rule="evenodd" d="M12.0585 177.014L6.48075 179.06V178.295L10.521 176.927C10.8668 176.815 11.1735 176.703 11.436 176.627C11.1473 176.556 10.8488 176.457 10.521 176.356L6.48075 174.919V174.198L12.0585 176.287V177.014V177.014ZM6.48075 170.08H12.0585V169.359H6.48V170.079L6.48075 170.08ZM9.8535 162.287H9.2145V160.03H11.2785C11.58 160.386 11.7885 160.727 11.9325 161.081C12.0765 161.46 12.1298 161.834 12.1298 162.22C12.1298 162.74 12.0368 163.221 11.8095 163.629C11.58 164.079 11.241 164.396 10.7828 164.607C10.3523 164.832 9.84225 164.93 9.27975 164.93C8.74275 164.93 8.24025 164.831 7.76325 164.607C7.293 164.396 6.96525 164.086 6.73275 163.667C6.501 163.271 6.3915 162.798 6.3915 162.288C6.3915 161.897 6.423 161.541 6.5745 161.244C6.70575 160.932 6.90075 160.678 7.122 160.503C7.3575 160.328 7.659 160.203 8.0355 160.1L8.21925 160.74C7.93425 160.815 7.725 160.914 7.55475 161.031C7.4025 161.163 7.25325 161.33 7.16175 161.541C7.05675 161.759 7.0125 162.014 7.0125 162.288C7.0125 162.593 7.05675 162.873 7.17525 163.109C7.26675 163.334 7.4235 163.538 7.56825 163.667C7.7505 163.812 7.93425 163.924 8.11575 163.992C8.47575 164.14 8.85225 164.203 9.24075 164.203C9.73875 164.203 10.1633 164.141 10.521 163.967C10.8278 163.799 11.0948 163.581 11.2463 163.258C11.4038 162.948 11.487 162.611 11.487 162.257C11.487 161.963 11.4248 161.671 11.3048 161.368C11.1743 161.069 11.046 160.877 10.9148 160.708H9.8535V162.288V162.287ZM6.48075 155.497H12.0585V154.782H6.48V155.497H6.48075ZM12.0585 150.209H6.48V149.49H11.382V146.891H12.057V150.209H12.0585ZM12.0585 143.257L6.48075 141.219V140.459L12.0585 138.283V139.091L10.371 139.714V141.926L12.0585 142.517V143.257ZM9.76425 141.735V139.923L8.21925 140.483C7.7505 140.65 7.3575 140.788 7.05675 140.857C7.4235 140.911 7.76325 141.019 8.115 141.148L9.765 141.735H9.76425ZM12.0585 134.359H6.48V132.505C6.48 132.113 6.50025 131.801 6.5535 131.577C6.627 131.278 6.7635 131.011 6.9645 130.795C7.2075 130.513 7.527 130.314 7.91175 130.172C8.2965 130.023 8.742 129.955 9.24 129.955C9.6765 129.955 10.05 130.01 10.371 130.118C10.6958 130.197 10.9523 130.314 11.1735 130.459C11.382 130.62 11.553 130.776 11.6835 130.937C11.8088 131.116 11.9055 131.336 11.9798 131.578C12.036 131.826 12.0578 132.113 12.0578 132.446V134.359H12.0585ZM11.3835 133.643V132.505C11.3835 132.169 11.3565 131.907 11.3048 131.677C11.241 131.478 11.121 131.336 11.0115 131.216C10.8278 131.054 10.608 130.912 10.2938 130.837C9.9975 130.726 9.64425 130.688 9.22875 130.688C8.64675 130.688 8.20125 130.775 7.89375 130.967C7.56825 131.148 7.3575 131.354 7.25325 131.615C7.17525 131.814 7.12275 132.113 7.12275 132.535V133.643H11.3828H11.3835ZM9.33225 125.824C8.41725 125.824 7.68525 125.582 7.16175 125.116C6.6375 124.638 6.3915 124.027 6.3915 123.295C6.3915 122.796 6.501 122.373 6.73275 121.956C6.99975 121.578 7.34475 121.267 7.77675 121.067C8.21925 120.851 8.72925 120.75 9.26625 120.75C9.84225 120.75 10.3523 120.866 10.7963 121.079C11.241 121.303 11.58 121.595 11.8095 121.993C12.0368 122.411 12.1298 122.808 12.1298 123.295C12.1298 123.798 12.0368 124.235 11.7885 124.625C11.5268 125.036 11.1735 125.328 10.731 125.533C10.2855 125.732 9.8265 125.824 9.33225 125.824V125.824ZM9.33225 125.111C10.0508 125.111 10.5608 124.937 10.9448 124.587C11.331 124.252 11.5268 123.81 11.5268 123.295C11.5268 122.759 11.3318 122.334 10.9448 121.981C10.5473 121.646 9.9975 121.466 9.26625 121.466C8.817 121.466 8.4165 121.54 8.08875 121.702C7.7505 121.832 7.48125 122.063 7.29375 122.343C7.09575 122.604 7.0125 122.938 7.0125 123.27C7.0125 123.79 7.2075 124.201 7.55475 124.575C7.9125 124.925 8.50725 125.111 9.33225 125.111V125.111Z" fill="#1D1D1B"/>
<g id="Group_2">
<mask id="mask0_0_577" style="mask-type:alpha" maskUnits="userSpaceOnUse" x="2" y="0" width="14" height="114">
<g id="prefix  b">
<path id="Vector_2" d="M2.5875 0L15.7365 0V113.363H2.5875V0Z" fill="white"/>
</g>
</mask>
<g mask="url(#mask0_0_577)">
<path id="Vector_3" fill-rule="evenodd" clip-rule="evenodd" d="M15.6465 80.1379H10.4888V78.4658C10.4888 78.07 10.521 77.7808 10.5668 77.5767C10.6448 77.3023 10.758 77.0487 10.9455 76.8686C11.175 76.6073 11.4495 76.414 11.8238 76.2834C12.1815 76.1473 12.5873 76.0785 13.044 76.0785C13.4363 76.0785 13.791 76.1288 14.0843 76.2154C14.397 76.2996 14.6528 76.414 14.8433 76.5632C15.045 76.6985 15.189 76.8392 15.312 76.9985C15.4373 77.1608 15.5153 77.3518 15.5685 77.5767C15.6465 77.8311 15.6465 78.0877 15.6465 78.3746V80.1379V80.1379ZM15.045 79.4924V78.4534C15.045 78.1248 15.0135 77.8697 14.94 77.6765C14.8875 77.5087 14.7953 77.3518 14.6775 77.2521C14.5155 77.0851 14.3115 76.9861 14.0258 76.8864C13.764 76.7998 13.4363 76.7642 13.017 76.7642C12.4883 76.7642 12.0773 76.8562 11.7893 77.0116C11.5013 77.1724 11.3055 77.3842 11.1998 77.6339C11.1375 77.8056 11.1023 78.0877 11.1023 78.4658V79.4924H15.045V79.4924ZM15.6465 75.1764H10.4888V71.621H11.103V74.5363H12.6855V71.8004H13.2923V74.537H15.045V71.5143H15.6465V75.1764ZM13.8345 65.2069L14.0258 64.5544C14.5808 64.6742 14.9925 64.9332 15.312 65.2687C15.6008 65.6552 15.7365 66.0642 15.7365 66.5945C15.7365 67.1102 15.6465 67.5346 15.411 67.8755C15.189 68.204 14.8613 68.4661 14.4158 68.6408C13.9913 68.8024 13.5293 68.8898 13.017 68.8898C12.51 68.8898 12.0375 68.7947 11.64 68.5906C11.2425 68.4159 10.9275 68.1422 10.719 67.7634C10.521 67.4147 10.404 67.0236 10.404 66.5574C10.404 66.0967 10.5353 65.6753 10.7963 65.3267C11.0693 65.002 11.436 64.7577 11.9063 64.6332L12.0773 65.261C11.685 65.3808 11.4045 65.5555 11.2688 65.7611C11.0693 65.99 10.9853 66.2582 10.9853 66.5945C10.9853 66.9733 11.0955 67.2903 11.2793 67.5346C11.4495 67.7827 11.7248 67.9628 12.0435 68.0618C12.366 68.1669 12.693 68.2041 13.017 68.2041C13.476 68.2041 13.8555 68.1546 14.1803 68.0371C14.5155 67.918 14.7705 67.7193 14.934 67.465C15.0915 67.2099 15.1493 66.9316 15.1493 66.6424C15.1493 66.2791 15.0585 65.9645 14.8433 65.7101C14.613 65.4558 14.274 65.2687 13.8345 65.2076V65.2069ZM13.143 63.9382C12.288 63.9382 11.607 63.7218 11.1218 63.2726C10.6523 62.8451 10.404 62.2831 10.404 61.5935C10.404 61.1405 10.521 60.7238 10.7453 60.3682C10.9673 60.001 11.2793 59.7289 11.7113 59.5356C12.1035 59.3346 12.5678 59.2488 13.0913 59.2488C13.6073 59.2488 14.0843 59.3354 14.4848 59.5403C14.8958 59.759 15.2145 60.0335 15.4373 60.3999C15.6465 60.754 15.7365 61.1691 15.7365 61.5935C15.7365 62.0551 15.6465 62.471 15.3855 62.8451C15.1493 63.2108 14.8433 63.4775 14.442 63.6646C14.0258 63.8509 13.5945 63.9382 13.143 63.9382ZM13.1483 63.2672C13.7775 63.2672 14.2583 63.1366 14.6258 62.8196C14.9655 62.4756 15.1493 62.0728 15.1493 61.5935C15.1493 61.1158 14.9655 60.7045 14.613 60.3922C14.259 60.076 13.737 59.9268 13.0785 59.9268C12.6773 59.9268 12.3008 59.9832 11.9813 60.1177C11.6588 60.2623 11.4263 60.4502 11.2688 60.7037C11.0693 60.9612 10.9853 61.2526 10.9853 61.5928C10.9853 62.0473 11.175 62.4339 11.4878 62.7647C11.8238 63.1118 12.3788 63.2672 13.1483 63.2672V63.2672ZM15.6458 58.4278H10.4888V57.7862H15.045V55.3649H15.6465V58.4286L15.6458 58.4278ZM13.143 54.7836C12.288 54.7836 11.607 54.5625 11.1218 54.1226C10.6523 53.6935 10.404 53.1315 10.404 52.4388C10.404 51.9851 10.521 51.5614 10.7453 51.2197C10.9673 50.8541 11.2793 50.5672 11.7113 50.3632C12.1035 50.1807 12.5678 50.0818 13.0913 50.0818C13.6073 50.0818 14.0843 50.1807 14.4848 50.3995C14.8958 50.5742 15.2145 50.8919 15.4373 51.2329C15.6465 51.6263 15.7365 52.0229 15.7365 52.4388C15.7365 52.912 15.6465 53.3155 15.3855 53.6758C15.1493 54.0391 14.8433 54.322 14.442 54.5107C14.0258 54.7039 13.5945 54.7836 13.143 54.7836V54.7836ZM13.1483 54.1226C13.7775 54.1226 14.2583 53.9579 14.6258 53.6278C14.9655 53.3155 15.1493 52.912 15.1493 52.4388C15.1493 51.9549 14.9655 51.5521 14.613 51.2329C14.259 50.9229 13.737 50.7543 13.0785 50.7543C12.6773 50.7543 12.3008 50.8239 11.9813 50.9399C11.6588 51.0906 11.4263 51.2877 11.2688 51.5521C11.0693 51.8188 10.9853 52.1142 10.9853 52.4388C10.9853 52.8911 11.175 53.3031 11.4878 53.6271C11.8238 53.9579 12.3788 54.1226 13.1483 54.1226V54.1226ZM15.6458 49.2739H10.4888V48.2967L14.154 47.1356L14.934 46.8959C14.7255 46.8611 14.4585 46.7413 14.0843 46.6501L10.4888 45.4665V44.5852H15.6465V45.2199H11.3318L15.6465 46.6501V47.216L11.2688 48.6516H15.6465V49.2739H15.6458ZM15.6458 43.5648H10.4888V41.7032C10.4888 41.3399 10.5488 41.0415 10.6523 40.8088C10.758 40.5877 10.9155 40.4045 11.1375 40.2931C11.3513 40.1633 11.58 40.0821 11.8238 40.0821C12.0375 40.0821 12.2483 40.1633 12.4433 40.2676C12.6405 40.3797 12.7823 40.5467 12.921 40.7725C13.0118 40.4679 13.1483 40.2676 13.3718 40.0821C13.5938 39.9344 13.8743 39.8525 14.154 39.8525C14.4053 39.8525 14.6265 39.8942 14.8433 39.9847C15.045 40.0821 15.2145 40.2135 15.312 40.3558C15.4373 40.498 15.5153 40.6789 15.5685 40.9016C15.6465 41.1257 15.6465 41.3824 15.6465 41.6978V43.5648H15.6458ZM12.6773 42.9293V41.847C12.6773 41.5571 12.6398 41.3499 12.6143 41.2146C12.5678 41.0654 12.483 40.941 12.3315 40.8413C12.2213 40.7717 12.0773 40.7423 11.907 40.7423C11.7248 40.7423 11.5808 40.767 11.436 40.8413C11.3055 40.9209 11.2155 41.0415 11.175 41.1891C11.1225 41.3244 11.103 41.578 11.103 41.9282V42.9293H12.678H12.6773ZM15.045 42.9293V41.6978C15.045 41.4891 15.045 41.3244 15.0323 41.2448C14.9925 41.0956 14.9393 40.9711 14.8748 40.8714C14.8088 40.767 14.7038 40.6789 14.6123 40.6124C14.4585 40.5622 14.3325 40.5367 14.1548 40.5367C13.9733 40.5367 13.8038 40.5676 13.6523 40.6789C13.5158 40.767 13.4153 40.8915 13.3583 41.05C13.3185 41.2077 13.2795 41.469 13.2795 41.7782V42.9301H15.045V42.9293ZM10.4888 38.8421H15.6465V38.1974H10.4888V38.8421ZM15.6465 37.5874L10.4888 35.7034V34.9961L15.6465 32.9977V33.7244L14.0843 34.3026V36.3513L15.6465 36.8994V37.5874ZM13.542 36.165V34.5098L12.1035 35.0123C11.658 35.1747 11.3213 35.2945 11.0198 35.3702C11.3573 35.429 11.7113 35.5117 12.0375 35.6184L13.542 36.165ZM6.1695 113.363L6.1305 112.746C6.39225 112.71 6.61275 112.647 6.765 112.543C6.92625 112.431 7.05675 112.26 7.1625 112.045C7.254 111.839 7.32 111.578 7.32 111.29C7.32 111.054 7.2675 110.826 7.209 110.63C7.1235 110.431 7.014 110.309 6.9015 110.21C6.7335 110.128 6.61275 110.066 6.42375 110.066C6.29325 110.066 6.1305 110.097 5.99925 110.21C5.90775 110.285 5.77725 110.431 5.71125 110.651C5.6595 110.78 5.58 111.079 5.47575 111.528C5.36625 111.987 5.23575 112.281 5.14275 112.455C5.0115 112.71 4.85475 112.895 4.66725 112.996C4.4835 113.119 4.248 113.158 3.99975 113.158C3.74925 113.158 3.52725 113.088 3.3 112.959C3.05025 112.814 2.89425 112.617 2.7585 112.348C2.65275 112.073 2.5875 111.77 2.5875 111.416C2.5875 111.079 2.65275 110.755 2.7825 110.482C2.9025 110.203 3.07725 109.985 3.339 109.835C3.56925 109.682 3.82875 109.611 4.13025 109.599L4.18125 110.239C3.8685 110.252 3.59625 110.383 3.44925 110.556C3.28125 110.755 3.18225 111.03 3.18225 111.402C3.18225 111.819 3.2685 112.093 3.42225 112.261C3.56925 112.455 3.74925 112.543 3.9735 112.543C4.155 112.543 4.3125 112.472 4.419 112.348C4.536 112.236 4.6665 111.889 4.7895 111.371C4.926 110.85 5.025 110.489 5.124 110.285C5.2665 109.998 5.4495 109.791 5.6595 109.642C5.85525 109.538 6.117 109.444 6.39225 109.444C6.64575 109.444 6.92625 109.538 7.1625 109.682C7.4025 109.817 7.5825 110.04 7.73925 110.309C7.86975 110.594 7.93425 110.912 7.93425 111.272C7.93425 111.715 7.86975 112.093 7.72575 112.385C7.58175 112.673 7.377 112.913 7.09575 113.088C6.84825 113.257 6.53325 113.35 6.1695 113.363V113.363ZM2.685 105.326V104.686H5.66025C6.17025 104.686 6.582 104.735 6.90225 104.86C7.20975 104.96 7.452 105.159 7.6605 105.471C7.83075 105.757 7.93575 106.135 7.93575 106.602C7.93575 107.067 7.84425 107.441 7.67325 107.727C7.53 108.032 7.26825 108.232 6.966 108.369C6.63825 108.493 6.21 108.547 5.661 108.547H2.6835V107.895H5.65875C6.11625 107.895 6.42375 107.856 6.63675 107.783C6.8475 107.703 7.03125 107.566 7.12275 107.386C7.25325 107.181 7.31925 106.943 7.31925 106.663C7.31925 106.186 7.20825 105.832 6.97875 105.649C6.73275 105.438 6.3 105.326 5.65875 105.326H2.685V105.326ZM7.84425 103.592H2.68425V101.737C2.68425 101.421 2.7105 101.179 2.72625 101.005C2.76375 100.768 2.84925 100.557 2.96625 100.382C3.08475 100.239 3.255 100.108 3.4905 100.01C3.68475 99.9038 3.9075 99.8659 4.17675 99.8659C4.60575 99.8659 5.004 99.9973 5.29275 100.252C5.5935 100.501 5.75025 100.998 5.75025 101.687V102.971H7.84275V103.592H7.84425ZM5.1435 102.971V101.688C5.1435 101.255 5.058 100.968 4.89 100.793C4.7325 100.607 4.497 100.531 4.20375 100.531C3.97425 100.531 3.81675 100.582 3.64125 100.676C3.49125 100.792 3.37125 100.917 3.33975 101.092C3.30075 101.191 3.30075 101.403 3.30075 101.687V102.971H5.1435V102.971ZM7.8435 99.0024H2.685V95.4462H3.30075V98.3607H4.863V95.624H5.49V98.3607H7.25475V95.3465H7.84425V99.0024H7.8435ZM7.8435 94.4242H2.685V92.2403C2.685 91.8244 2.727 91.4758 2.82375 91.2593C2.90325 91.022 3.072 90.8558 3.30075 90.7058C3.54375 90.5612 3.81675 90.5063 4.09125 90.5063C4.4655 90.5063 4.78575 90.6068 5.01225 90.8558C5.26725 91.0846 5.4315 91.4131 5.5035 91.8878C5.58075 91.7247 5.661 91.5832 5.751 91.5013C5.9355 91.301 6.171 91.1302 6.4245 90.9555L7.84425 90.1074V90.9222L6.76575 91.5832C6.456 91.7579 6.21075 91.9326 6.05325 92.0548C5.9085 92.1615 5.76975 92.2859 5.712 92.3601C5.64225 92.4599 5.607 92.5727 5.58075 92.6647C5.54175 92.7567 5.54175 92.8634 5.54175 93.0304V93.7772H7.84425V94.4242H7.8435ZM4.96875 93.7772V92.3857C4.96875 92.0788 4.92675 91.8492 4.863 91.6876C4.79025 91.5214 4.6995 91.3892 4.5555 91.301C4.4055 91.2268 4.24875 91.1719 4.0905 91.1719C3.86925 91.1719 3.6405 91.2593 3.4905 91.4209C3.33975 91.5832 3.25575 91.8615 3.25575 92.2233V93.7772H4.96875V93.7772ZM2.685 89.3877H7.84425V88.7229H2.68425V89.3877H2.685ZM7.84425 87.5888H2.68425V86.9185L6.7335 84.3488H2.68425V83.7165H7.8435V84.3875L3.789 86.9556H7.8435V87.5895L7.84425 87.5888ZM7.84425 81.3771H3.3V82.9898H2.685V79.1066H3.30075V80.7162H7.84425V81.3771ZM7.84425 78.4163H2.68425V74.8648H3.3V77.77H4.86225V75.0596H5.48925V77.77H7.254V74.7527H7.8435V78.4155L7.84425 78.4163ZM7.84425 73.8536H2.68425V73.1679L6.7335 70.6191H2.68425V69.9952H7.8435V70.6539L3.789 73.2305H7.8435V73.8536H7.84425ZM7.84425 68.8905H2.68425V67.2091C2.68425 66.8125 2.7105 66.5381 2.7585 66.3201C2.823 66.034 2.9355 65.8098 3.111 65.5934C3.351 65.3437 3.63975 65.1512 3.999 65.0221C4.365 64.903 4.785 64.8234 5.235 64.8234C5.61975 64.8234 5.973 64.8907 6.2925 64.9533C6.57525 65.0577 6.84825 65.1512 7.032 65.3012C7.254 65.4256 7.371 65.5857 7.50225 65.7557C7.60725 65.8902 7.686 66.0959 7.75125 66.3379C7.81725 66.5582 7.8435 66.8125 7.8435 67.1303V68.8898L7.84425 68.8905ZM7.25475 68.2419V67.206C7.25475 66.8736 7.20975 66.6123 7.12425 66.4376C7.07925 66.2582 6.98025 66.0967 6.888 65.9969C6.70725 65.8477 6.49875 65.7109 6.21 65.6491C5.9475 65.5431 5.6205 65.5099 5.23575 65.5099C4.68075 65.5099 4.275 65.5857 3.97425 65.7611C3.7065 65.9219 3.49125 66.1137 3.39225 66.3626C3.33975 66.5505 3.30075 66.8365 3.30075 67.2091V68.2419H7.25475ZM7.84425 63.9143H2.68425V60.3682H3.3V63.2672H4.86225V60.5615H5.48925V63.2672H7.254V60.2623H7.8435V63.9143H7.84425ZM7.84425 59.3609H2.68425V58.703L6.7335 56.1163H2.68425V55.4987H7.8435V56.1658L3.789 58.7278H7.8435V59.3609H7.84425ZM6.01275 50.9028L6.20925 50.2379C6.76425 50.3624 7.209 50.6337 7.4895 50.9824C7.7775 51.3434 7.935 51.7848 7.935 52.2881C7.935 52.7983 7.81725 53.2351 7.5825 53.559C7.35825 53.9262 7.032 54.1674 6.61275 54.3406C6.17025 54.5029 5.71125 54.5857 5.235 54.5857C4.68 54.5857 4.2135 54.5029 3.82875 54.2795C3.423 54.1118 3.111 53.818 2.9025 53.4693C2.7105 53.106 2.5875 52.6916 2.5875 52.2711C2.5875 51.7848 2.7105 51.3612 2.97225 51.0334C3.255 50.6832 3.621 50.4536 4.10325 50.3199L4.248 50.9399C3.87525 51.0898 3.59625 51.2321 3.4395 51.4501C3.255 51.6921 3.1695 51.9541 3.1695 52.2881C3.1695 52.6615 3.2685 52.9862 3.46425 53.2305C3.65775 53.4778 3.90675 53.6642 4.21425 53.7763C4.53675 53.8683 4.88925 53.9262 5.235 53.9262C5.6595 53.9262 6.039 53.8683 6.36525 53.7438C6.7065 53.6139 6.939 53.4268 7.0965 53.1547C7.254 52.9112 7.3455 52.6313 7.3455 52.3337C7.3455 51.9541 7.254 51.6758 7.01325 51.4014C6.80325 51.1579 6.4635 50.9824 6.01275 50.902V50.9028ZM2.68425 49.3419H7.8435V48.6895H2.68425V49.3419ZM7.8435 48.0795L2.68425 46.1832V45.482L7.8435 43.4651V44.225L6.29325 44.7893V46.8611L7.8435 47.3853V48.0803V48.0795ZM5.72475 46.6493V44.9826L4.29225 45.506C3.8685 45.6544 3.48975 45.7804 3.22125 45.8592C3.54375 45.9211 3.87525 46.0015 4.2135 46.126L5.72475 46.6493ZM7.8435 41.0152H2.68425V37.7065H3.3V40.379H4.89V38.0644H5.5035V40.379H7.8435V41.0152ZM2.68425 36.7494H7.8435V36.1016H2.68425V36.7494ZM7.8435 34.9458H2.68425V34.3026L6.7335 31.7105H2.68425V31.0782H7.8435V31.7407L3.789 34.3343H7.8435V34.9458V34.9458ZM7.8435 30.5347L2.68425 28.6314V27.9434L7.8435 25.9349V26.6678L6.29325 27.2654V29.3094L7.8435 29.8528V30.5347ZM5.72475 29.1099V27.4463L4.29225 27.9542C3.8685 28.1189 3.48975 28.248 3.22125 28.3021C3.54375 28.3979 3.87525 28.4567 4.2135 28.5719L5.72475 29.1099V29.1099ZM7.8435 25.4301H2.68425V24.7521L6.7335 22.1832H2.68425V21.5555H7.8435V22.2281L3.789 24.7947H7.8435V25.4301ZM6.01275 16.9341L6.20925 16.3009C6.76425 16.4548 7.209 16.6797 7.4895 17.033C7.7775 17.3995 7.935 17.8154 7.935 18.3333C7.935 18.8668 7.81725 19.2958 7.5825 19.6321C7.35825 19.9645 7.032 20.2181 6.61275 20.3781C6.17025 20.5513 5.71125 20.6425 5.235 20.6425C4.68 20.6425 4.2135 20.5513 3.82875 20.3603C3.423 20.1555 3.111 19.8888 2.9025 19.5254C2.7105 19.1543 2.5875 18.7632 2.5875 18.314C2.5875 17.8308 2.7105 17.4327 2.97225 17.0786C3.255 16.7462 3.621 16.522 4.10325 16.3806L4.248 17.0284C3.87525 17.1583 3.59625 17.2997 3.4395 17.5162C3.255 17.7365 3.1695 17.9978 3.1695 18.3333C3.1695 18.7176 3.2685 19.0422 3.46425 19.2858C3.65775 19.5409 3.90675 19.7202 4.21425 19.8192C4.53675 19.9243 4.88925 19.9947 5.235 19.9947C5.6595 19.9947 6.039 19.9243 6.36525 19.7991C6.7065 19.6653 6.939 19.4705 7.0965 19.2154C7.254 18.9719 7.3455 18.692 7.3455 18.3844C7.3455 18.0156 7.254 17.7242 7.01325 17.4621C6.80325 17.1884 6.4635 17.033 6.01275 16.9341V16.9341ZM2.68425 15.3926H7.8435V14.7401H2.68425V15.3926ZM7.8435 13.5828H2.68425V10.0306H3.3V12.9412H4.86225V10.2161H5.48925V12.942H7.254V9.90688H7.8435V13.5828ZM7.8435 9.00548H2.68425V6.83548C2.68425 6.3871 2.72625 6.06473 2.823 5.82508C2.9025 5.59161 3.07125 5.41149 3.3 5.27929C3.543 5.14787 3.816 5.08061 4.0905 5.08061C4.46475 5.08061 4.785 5.19271 5.0115 5.41149C5.2665 5.63413 5.43075 5.98278 5.50275 6.46827C5.58 6.29433 5.66025 6.14977 5.75025 6.07401C5.93475 5.89079 6.17025 5.69598 6.42375 5.546L7.8435 4.6848V5.50193L6.765 6.13276C6.45525 6.32448 6.21 6.49842 6.0525 6.62288C5.90775 6.74271 5.769 6.84321 5.71125 6.92747C5.6415 7.03184 5.60625 7.13852 5.58 7.23206C5.541 7.30628 5.541 7.43074 5.541 7.60004V8.35765H7.8435V9.00548V9.00548ZM4.968 8.35765V6.96535C4.968 6.66077 4.926 6.41879 4.86225 6.26959C4.7895 6.08947 4.69875 5.97041 4.55475 5.89079C4.40475 5.8073 4.248 5.74159 4.08975 5.74159C3.8685 5.74159 3.63975 5.82508 3.48975 5.99051C3.339 6.17528 3.255 6.43658 3.255 6.7976V8.35765H4.968V8.35765ZM7.8435 4.58507L2.68425 2.69879V2.00766L7.8435 0V0.739827L6.29325 1.31113V3.36904L7.8435 3.89163V4.58507V4.58507ZM5.72475 3.18427V1.49898L4.29225 2.03781C3.8685 2.20325 3.48975 2.3022 3.22125 2.37796C3.54375 2.44445 3.87525 2.51866 4.2135 2.63694L5.72475 3.18427Z" fill="#1D1D1B"/>
</g>
</g>
<mask id="mask1_0_577" style="mask-type:alpha" maskUnits="userSpaceOnUse" x="0" y="0" width="18" height="183">
<g id="prefix  d">
<path id="Vector_4" d="M0 182.556H17.9708V4.19618e-06H0V182.556Z" fill="white"/>
</g>
</mask>
<g mask="url(#mask1_0_577)">
<path id="Vector_5" fill-rule="evenodd" clip-rule="evenodd" d="M0 182.556H2.163V117.262H0L0 182.556ZM15.8025 182.556H17.9708V117.262H15.8033V182.556H15.8025Z" fill="#1D1D1B"/>
</g>
</g>
</g>
</svg>
