<svg preserveAspectRatio="none" width="138.852" height="23.8983" overflow="visible" style="display: block;" viewBox="0 0 138.852 23.8983" fill="none" xmlns="http://www.w3.org/2000/svg">
<g id="Vector">
<path d="M32.8695 13.6087C32.9933 14.5265 33.6881 14.9889 34.9539 14.9889C35.4424 14.9889 35.8276 14.8923 36.1097 14.7059C36.3917 14.5196 36.5362 14.2712 36.5362 13.9744C36.5362 13.5259 36.1647 13.2222 35.4217 13.0566L33.3579 12.6287C32.443 12.4424 31.7344 12.0905 31.2391 11.5936C30.7438 11.0898 30.4961 10.4756 30.4961 9.74411C30.4961 8.75727 30.8676 7.94986 31.6174 7.32877C32.3673 6.70768 33.3717 6.39713 34.6237 6.39713C35.8001 6.39713 36.7838 6.67317 37.5681 7.23215C38.3592 7.79113 38.8408 8.51574 39.0196 9.40597L36.4674 9.91664C36.4123 9.49568 36.2128 9.15753 35.8689 8.90219C35.5249 8.64686 35.0846 8.51574 34.5412 8.51574C34.0527 8.51574 33.7019 8.61235 33.4886 8.81248C33.2754 9.01261 33.1653 9.24034 33.1653 9.51638C33.1653 9.95114 33.468 10.2341 34.0802 10.3721L36.488 10.9035C37.3548 11.0898 38.0083 11.4418 38.4624 11.9524C38.9164 12.4631 39.1434 13.0635 39.1434 13.7743C39.1434 14.8715 38.7444 15.7135 37.9396 16.2932C37.1347 16.8728 36.0615 17.1696 34.7063 17.1696C33.5024 17.1696 32.4774 16.9211 31.6243 16.4243C30.7713 15.9274 30.2897 15.1821 30.1659 14.1815L32.8695 13.6087Z" fill="black"/>
<path d="M49.7445 12.4909H42.0465C42.1841 13.2086 42.4799 13.7814 42.9477 14.2093C43.4155 14.6371 43.959 14.8511 44.5781 14.8511C45.7269 14.8511 46.5662 14.4025 47.0891 13.5123L49.4762 14.023C49.0428 15.0512 48.403 15.831 47.55 16.3624C46.6969 16.8938 45.7063 17.156 44.5712 17.156C43.1128 17.156 41.8814 16.6522 40.8839 15.6516C39.8864 14.6509 39.3842 13.3605 39.3842 11.787C39.3842 10.2136 39.8864 8.92312 40.8908 7.91557C41.8952 6.90803 43.1334 6.40426 44.6056 6.40426C45.9815 6.40426 47.1716 6.88732 48.1622 7.86036C49.1529 8.8265 49.6757 10.0756 49.7307 11.5869V12.4909H49.7445ZM43.0715 9.21986C42.59 9.54421 42.2804 10.0066 42.1291 10.6001H47.0134C46.8483 9.97897 46.5525 9.5097 46.1259 9.19916C45.6925 8.88861 45.1904 8.72989 44.6263 8.72989C44.069 8.72989 43.5462 8.89552 43.0715 9.21986Z" fill="black"/>
<path d="M60.6208 15.8654C60.6208 17.3974 60.1324 18.5844 59.1624 19.4332C58.1924 20.282 56.8715 20.703 55.2136 20.703C52.8609 20.703 51.2236 19.9577 50.288 18.4671L52.455 16.8177C52.8746 17.3491 53.2805 17.7217 53.6726 17.9426C54.0648 18.1634 54.5807 18.2807 55.2136 18.2807C56.0804 18.2807 56.7615 18.0323 57.2705 17.5285C57.7796 17.0247 58.0273 16.3346 58.0273 15.4582V15.2926C57.2568 15.9137 56.1974 16.2242 54.849 16.2242C53.5557 16.2242 52.4137 15.7412 51.4231 14.7819C50.4394 13.8227 49.944 12.6564 49.944 11.29C49.944 9.93743 50.4394 8.77806 51.4231 7.82573C52.4069 6.87339 53.5488 6.39032 54.849 6.39032C56.1698 6.39032 57.2361 6.70086 58.0273 7.32195V6.69397H60.6001L60.6208 15.8654ZM57.2224 13.1947C57.7659 12.6978 58.0342 12.0698 58.0342 11.2969C58.0342 10.524 57.7659 9.88912 57.2224 9.39915C56.6789 8.90228 56.046 8.66075 55.3168 8.66075C54.505 8.66075 53.8378 8.90228 53.308 9.39225C52.7783 9.88222 52.5169 10.5171 52.5169 11.3038C52.5169 12.0905 52.7783 12.7254 53.308 13.2154C53.8378 13.7054 54.505 13.9469 55.3168 13.9469C56.046 13.9331 56.6789 13.6847 57.2224 13.1947Z" fill="black"/>
<path d="M72.0886 16.8384H69.4125V15.9205C68.6007 16.7349 67.5413 17.142 66.2343 17.142C65.0166 17.142 64.0397 16.7487 63.2968 15.955C62.5538 15.1614 62.1823 14.1332 62.1823 12.8772V6.70081H64.8584V12.3113C64.8584 13.029 65.0441 13.6087 65.4156 14.0366C65.7871 14.4713 66.2824 14.6853 66.9015 14.6853C68.5732 14.6853 69.4125 13.519 69.4125 11.1865V6.69391H72.0886V16.8384Z" fill="black"/>
<path d="M80.9217 6.63864L80.7772 9.21961H80.1925C77.7916 9.21961 76.5877 10.6688 76.5877 13.5672V16.8383H73.9116V6.69385H76.5877V8.54332C77.5026 7.21833 78.7134 6.54893 80.2131 6.54893C80.5227 6.55583 80.7566 6.58343 80.9217 6.63864Z" fill="black"/>
<path d="M90.0437 7.95009C91.1031 8.94383 91.6328 10.2205 91.6328 11.7801C91.6328 13.3398 91.1031 14.6164 90.0437 15.6102C88.9842 16.6039 87.6978 17.1008 86.1844 17.1008C84.6434 17.1008 83.3432 16.6039 82.2769 15.6102C81.2106 14.6164 80.674 13.3398 80.674 11.7801C80.674 10.2205 81.2106 8.94383 82.2769 7.95009C83.3432 6.95635 84.6503 6.45947 86.1844 6.45947C87.6978 6.45257 88.9842 6.95635 90.0437 7.95009ZM88.1725 13.9678C88.7503 13.4088 89.0462 12.6773 89.0462 11.7801C89.0462 10.883 88.7572 10.1584 88.1725 9.59252C87.5946 9.03354 86.9273 8.7506 86.1844 8.7506C85.4139 8.7506 84.7328 9.02664 84.1481 9.58562C83.5633 10.1446 83.2675 10.8761 83.2675 11.7801C83.2675 12.6842 83.5633 13.4226 84.1481 13.9747C84.7328 14.5267 85.4139 14.8097 86.1844 14.8097C86.9273 14.8097 87.5946 14.5267 88.1725 13.9678Z" fill="black"/>
<path d="M94.4946 13.6087C94.6184 14.5265 95.3132 14.9889 96.579 14.9889C97.0675 14.9889 97.4527 14.8923 97.7348 14.7059C98.0168 14.5196 98.1613 14.2712 98.1613 13.9744C98.1613 13.5259 97.7898 13.2222 97.0468 13.0566L94.983 12.6287C94.0681 12.4424 93.3595 12.0905 92.8642 11.5936C92.3689 11.0898 92.1212 10.4756 92.1212 9.74411C92.1212 8.75727 92.4927 7.94986 93.2425 7.32877C93.9924 6.70768 94.9968 6.39713 96.2488 6.39713C97.4252 6.39713 98.4089 6.67317 99.1932 7.23215C99.9843 7.79113 100.466 8.51574 100.645 9.40597L98.0925 9.91664C98.0374 9.49568 97.8379 9.15753 97.494 8.90219C97.15 8.64686 96.7097 8.51574 96.1663 8.51574C95.6778 8.51574 95.327 8.61235 95.1137 8.81248C94.9005 9.01261 94.7904 9.24034 94.7904 9.51638C94.7904 9.95114 95.0931 10.2341 95.7053 10.3721L98.1131 10.9035C98.9799 11.0898 99.6335 11.4418 100.087 11.9524C100.542 12.4631 100.769 13.0635 100.769 13.7743C100.769 14.8715 100.37 15.7135 99.5647 16.2932C98.7598 16.8728 97.6866 17.1696 96.3314 17.1696C95.1275 17.1696 94.1025 16.9211 93.2494 16.4243C92.3964 15.9274 91.9148 15.1821 91.791 14.1815L94.4946 13.6087Z" fill="black"/>
<path d="M115.903 16.8384H113.227V16.0448C112.319 16.7763 111.204 17.1421 109.884 17.1421C108.549 17.1421 107.386 16.6314 106.396 15.6169C105.412 14.6025 104.917 13.3189 104.917 11.7731C104.917 10.2273 105.412 8.94369 106.403 7.92234C107.393 6.90099 108.556 6.39032 109.877 6.39032C111.211 6.39032 112.326 6.76297 113.22 7.50828V6.69397H115.896V16.8384H115.903ZM112.36 13.9676C112.938 13.4086 113.234 12.6771 113.234 11.78C113.234 10.8829 112.945 10.1514 112.36 9.58548C111.782 9.0196 111.108 8.72976 110.351 8.72976C109.526 8.72976 108.852 9.0058 108.315 9.56478C107.779 10.1238 107.517 10.8622 107.517 11.78C107.517 12.6978 107.785 13.4362 108.315 13.9883C108.852 14.5404 109.526 14.8095 110.351 14.8095C111.108 14.8095 111.775 14.5266 112.36 13.9676Z" fill="black"/>
<path d="M117.726 16.8386V2.20848H120.402V16.8386H117.726Z" fill="black"/>
<path d="M128.485 6.70087V8.89539H125.424V16.8384H122.748V8.89539H121.207V6.70087H122.748V5.78305C122.748 4.60298 123.113 3.67134 123.842 2.98124C124.571 2.29114 125.534 1.94609 126.738 1.94609C127.385 1.94609 127.99 2.07721 128.54 2.33255L127.935 4.50636C127.57 4.38214 127.233 4.32694 126.924 4.32694C126.477 4.32694 126.119 4.45805 125.837 4.71339C125.562 4.96873 125.424 5.32758 125.424 5.78994V6.70778H128.485V6.70087Z" fill="black"/>
<path d="M138.852 16.8384H136.176V16.0448C135.268 16.7763 134.154 17.1421 132.833 17.1421C131.498 17.1421 130.336 16.6314 129.345 15.6169C128.361 14.6025 127.866 13.3189 127.866 11.7731C127.866 10.2273 128.362 8.94369 129.352 7.92234C130.343 6.90099 131.505 6.39032 132.826 6.39032C134.161 6.39032 135.275 6.76297 136.17 7.50828V6.69397H138.846V16.8384H138.852ZM135.31 13.9676C135.887 13.4086 136.183 12.6771 136.183 11.78C136.183 10.8829 135.894 10.1514 135.31 9.58548C134.732 9.0196 134.058 8.72976 133.301 8.72976C132.475 8.72976 131.801 9.0058 131.265 9.56478C130.728 10.1238 130.467 10.8622 130.467 11.78C130.467 12.6978 130.735 13.4362 131.265 13.9883C131.801 14.5404 132.475 14.8095 133.301 14.8095C134.058 14.8095 134.732 14.5266 135.31 13.9676Z" fill="black"/>
<path d="M12.7336 0L1.52029 2.41535L12.5754 4.81689L24.3803 2.50506L12.7336 0Z" fill="#009B76"/>
<path d="M4.38901 8.43988C3.14385 8.43988 2.13259 10.3998 2.13259 12.8151C2.13259 15.2305 3.14385 17.1903 4.38901 17.1903C5.63417 17.1903 6.64543 15.2305 6.64543 12.8151C6.64543 10.3998 5.63417 8.43988 4.38901 8.43988Z" fill="#009B76"/>
<path d="M0 3.0573L0.00687818 19.9716L12.0732 23.8983V5.66588L0 3.0573ZM9.84433 22.0557C9.84433 22.0557 8.50286 17.2664 7.67734 16.0933L7.44344 15.693C6.8931 17.8806 5.73049 19.3989 4.38902 19.3989C2.51096 19.3989 0.990624 16.4521 0.990624 12.8153C0.990624 9.17848 2.51096 6.23176 4.38902 6.23176C5.90935 6.23176 7.18891 8.15714 7.62919 10.8209L7.82181 10.4483C7.82181 10.4483 9.50037 7.35662 9.72738 5.99022L10.9037 6.03163C10.9037 6.03163 9.63107 10.1722 7.95251 13.0844C7.95251 13.0844 10.9038 20.089 11.1308 21.5934L9.84433 22.0557Z" fill="#009B76"/>
<path d="M17.7143 8.98521C16.4004 8.90239 15.224 10.8278 15.0864 13.2845C14.9488 15.7413 15.8982 17.7978 17.2121 17.8737C18.5261 17.9565 19.7024 16.0311 19.84 13.5744C19.9845 11.1245 19.0283 9.06802 17.7143 8.98521Z" fill="#009B76"/>
<path d="M12.9951 5.70022L12.9607 23.8774L25.2678 19.937V2.99504L12.9951 5.70022ZM23.5549 20.0474C23.5549 20.0474 21.8694 15.6446 20.9683 14.6163L20.9545 14.5404C20.5349 17.7977 18.8976 20.2406 17.0814 20.1233C15.1071 19.9991 13.6693 16.9074 13.8825 13.2085C14.0889 9.50957 15.8638 6.61806 17.8382 6.74228C18.9939 6.81129 19.957 7.90164 20.5211 9.53028L20.6312 9.26804C20.6312 9.26804 21.9864 6.1833 22.0896 4.87211L22.1102 4.52016L23.3141 4.22341L23.2316 4.80309C23.2316 4.80309 22.3579 8.81257 20.9958 11.7179C20.9958 11.7317 20.9958 11.7524 21.0026 11.7731C21.1678 12.0767 24.4217 18.122 24.7588 19.4884L23.5549 20.0474Z" fill="#009B76"/>
</g>
</svg>
